<?xml version="1.0" encoding="UTF-8"?>
<svg id="_圖層_1" data-name="圖層_1" xmlns="http://www.w3.org/2000/svg" version="1.1" viewBox="0 0 595.28 841.89">
  <!-- Generator: Adobe Illustrator 29.3.1, SVG Export Plug-In . SVG Version: 2.1.0 Build 151)  -->
  <defs>
    <style>
      .st0, .st1, .st2, .st3 {
        fill: none;
      }

      .st1 {
        stroke-width: .78px;
      }

      .st1, .st2, .st3, .st4, .st5, .st6, .st7, .st8 {
        stroke-miterlimit: 10;
      }

      .st1, .st2, .st3, .st4, .st6, .st7 {
        stroke: #231916;
      }

      .st3, .st5 {
        stroke-width: 2px;
      }

      .st9 {
        font-size: 14.2px;
      }

      .st9, .st10, .st11, .st12 {
        fill: #231916;
      }

      .st9, .st10, .st12 {
        font-family: Arial-BoldMT, Arial;
        font-weight: 700;
      }

      .st4 {
        fill: #d3eadf;
      }

      .st5 {
        fill: #98ca6d;
        stroke: #00913a;
      }

      .st6 {
        fill: #fbf6c8;
      }

      .st10 {
        font-size: 16px;
      }

      .st12 {
        font-size: 12px;
      }

      .st7 {
        fill: #efefef;
      }

      .st8 {
        fill: #def0ed;
        stroke: #dcdddd;
        stroke-width: 6px;
      }
    </style>
  </defs>
  <rect class="st6" x="266.19" y="106.89" width="67.28" height="28.64" rx="2.3" ry="2.3"/>
  <text class="st10" transform="translate(280.65 125.24)"><tspan x="0" y="0">fastq</tspan></text>
  <rect class="st4" x="255.7" y="156.3" width="88.25" height="38.12"/>
  <text class="st10" transform="translate(260.09 170.55)"><tspan x="0" y="0">Alignment</tspan><tspan x="12" y="19.2">(STAR)</tspan></text>
  <rect class="st6" x="225.65" y="278.34" width="148.36" height="48.35" rx="2.3" ry="2.3"/>
  <text class="st10" transform="translate(249.08 298.84)"><tspan x="0" y="0">Subtelomeric</tspan><tspan x="-.87" y="19.2">TERRA count</tspan></text>
  <rect class="st6" x="234.49" y="438.92" width="130.54" height="48.35" rx="2.3" ry="2.3"/>
  <text class="st10" transform="translate(256.56 459.32)"><tspan x="0" y="0">Normalized</tspan><tspan x="16.9" y="19.2">counts</tspan></text>
  <rect class="st4" x="249.66" y="215.18" width="100.33" height="23.48"/>
  <text class="st10" transform="translate(250.65 232.04)"><tspan x="0" y="0">HTseq-count</tspan></text>
  <text class="st10" transform="translate(63.64 366.77)"><tspan x="0" y="0">Filter out </tspan><tspan x="0" y="19.2">tissue-specific </tspan><tspan x="0" y="38.4">gene expression</tspan></text>
  <rect class="st6" x="234.49" y="348.61" width="130.54" height="28.64" rx="2.3" ry="2.3"/>
  <text class="st10" transform="translate(242.43 366.77)"><tspan x="0" y="0">Merged counts</tspan></text>
  <rect class="st4" x="273.86" y="397.97" width="51.8" height="21.6"/>
  <text class="st10" transform="translate(277.39 414.24)"><tspan x="0" y="0">YARN</tspan></text>
  <text class="st10" transform="translate(359.88 403.79)"><tspan x="0" y="0">Counts are normalized </tspan><tspan x="19.59" y="19.2">by qsmooth method.</tspan></text>
  <g>
    <line class="st1" x1="138.05" y1="255.42" x2="138.05" y2="276.03"/>
    <polygon class="st11" points="138.05 278.78 136.47 274.91 138.05 275.83 139.63 274.91 138.05 278.78"/>
  </g>
  <path class="st0" d="M160.71,256.41"/>
  <g>
    <line class="st1" x1="299.76" y1="377.86" x2="299.76" y2="395.08"/>
    <polygon class="st11" points="299.76 397.83 298.18 393.96 299.76 394.88 301.34 393.96 299.76 397.83"/>
  </g>
  <g>
    <line class="st1" x1="299.76" y1="419.57" x2="299.76" y2="436.17"/>
    <polygon class="st11" points="299.76 438.92 298.18 435.04 299.76 435.96 301.34 435.04 299.76 438.92"/>
  </g>
  <rect class="st6" x="371.06" y="165.2" width="164.69" height="48.34" rx="2.3" ry="2.3"/>
  <text class="st10" transform="translate(423.88 184.11)"><tspan x="0" y="0">TERRA </tspan><tspan x="-50.23" y="19.2">transcription regions</tspan></text>
  <rect class="st6" x="114.8" y="180.1" width="105.13" height="28.64" rx="2.3" ry="2.3"/>
  <text class="st10" transform="translate(122.04 199.48)"><tspan x="0" y="0">CHM13 GTF</tspan></text>
  <g>
    <line class="st1" x1="461.57" y1="256.72" x2="461.57" y2="275.59"/>
    <polygon class="st11" points="461.57 278.34 459.98 274.47 461.57 275.38 463.15 274.47 461.57 278.34"/>
  </g>
  <path class="st0" d="M299.25,256.72"/>
  <g>
    <line class="st1" x1="299.83" y1="238.66" x2="299.83" y2="275.59"/>
    <polygon class="st11" points="299.83 278.34 298.24 274.47 299.83 275.38 301.41 274.47 299.83 278.34"/>
  </g>
  <line class="st1" x1="137.21" y1="256.41" x2="299.25" y2="256.41"/>
  <line class="st1" x1="299.58" y1="256.41" x2="462.54" y2="256.41"/>
  <path class="st1" d="M351.99,248.34"/>
  <line class="st1" x1="167.37" y1="227.38" x2="167.37" y2="209.02"/>
  <line class="st1" x1="453.4" y1="227.99" x2="453.4" y2="213.54"/>
  <g>
    <line class="st1" x1="166.42" y1="226.62" x2="246.91" y2="227.19"/>
    <polygon class="st11" points="249.66 227.21 245.77 228.77 246.71 227.19 245.8 225.6 249.66 227.21"/>
  </g>
  <g>
    <line class="st1" x1="454.36" y1="227.29" x2="352.74" y2="226.57"/>
    <polygon class="st11" points="349.99 226.55 353.88 224.99 352.95 226.57 353.86 228.16 349.99 226.55"/>
  </g>
  <g>
    <line class="st1" x1="299.83" y1="326.69" x2="299.83" y2="345.87"/>
    <polygon class="st11" points="299.83 348.61 298.24 344.74 299.83 345.66 301.41 344.74 299.83 348.61"/>
  </g>
  <rect class="st6" x="63.87" y="278.34" width="148.36" height="48.35" rx="2.3" ry="2.3"/>
  <text class="st10" transform="translate(89.6 307.94)"><tspan x="0" y="0">Gene counts</tspan></text>
  <rect class="st6" x="387.38" y="278.34" width="148.36" height="48.35" rx="2.3" ry="2.3"/>
  <text class="st10" transform="translate(421.41 297.35)"><tspan x="0" y="0">Telomeric </tspan><tspan x="-12.44" y="19.2">repeat counts</tspan></text>
  <g>
    <line class="st1" x1="299.83" y1="194.42" x2="299.83" y2="212.5"/>
    <polygon class="st11" points="299.83 215.25 298.24 211.37 299.83 212.29 301.41 211.37 299.83 215.25"/>
  </g>
  <g>
    <line class="st1" x1="299.83" y1="135.53" x2="299.83" y2="153.61"/>
    <polygon class="st11" points="299.83 156.36 298.24 152.49 299.83 153.41 301.41 152.49 299.83 156.36"/>
  </g>
  <line class="st1" x1="138.05" y1="363.59" x2="138.05" y2="326.69"/>
  <line class="st1" x1="461.57" y1="363.59" x2="461.57" y2="326.69"/>
  <g>
    <line class="st1" x1="137.64" y1="362.59" x2="231.74" y2="363.26"/>
    <polygon class="st11" points="234.49 363.28 230.6 364.84 231.54 363.26 230.63 361.67 234.49 363.28"/>
  </g>
  <g>
    <line class="st1" x1="462.57" y1="363.28" x2="367.78" y2="362.61"/>
    <polygon class="st11" points="365.03 362.59 368.91 361.03 367.98 362.61 368.89 364.2 365.03 362.59"/>
  </g>
  <text class="st10" transform="translate(63.64 143.5)"><tspan x="0" y="0">Reads were </tspan><tspan x="0" y="19.2">mapped to CHM13</tspan></text>
  <path class="st8" d="M231.32,58.68s-2.08-6.22,3.65-9.26,8.77,1.82,8.77,1.82c0,0,4.62-10.51,18.07-9.43,13.82,1.1,15.61,16.37,15.17,16.47.86,0,12.08,4.74,6.6,15.71-3.12,6.25-11.34,5.79-27.95,5.38-16.69-.41-27.21.75-29.68-6.77-2.52-7.65,2.6-12.57,5.38-13.91Z"/>
  <polygon class="st5" points="239.18 91.8 230.24 78.47 234.6 78.47 234.6 63.01 239.18 63.01 243.75 63.01 243.75 78.47 248.11 78.47 239.18 91.8"/>
  <text class="st10" transform="translate(285.64 61.69)"><tspan x="0" y="0">Online </tspan><tspan x="-7.57" y="19.2">database</tspan></text>
  <rect class="st7" x="59.23" y="53.4" width="102.43" height="52.77" rx="15.27" ry="15.27"/>
  <rect class="st4" x="72.66" y="78.77" width="35.73" height="18.13"/>
  <text class="st12" transform="translate(77.72 92.17)"><tspan x="0" y="0">Tool</tspan></text>
  <rect class="st6" x="111.4" y="78.77" width="35.65" height="18.13"/>
  <text class="st12" transform="translate(119.62 92.12)"><tspan x="0" y="0">File</tspan></text>
  <text class="st9" transform="translate(72.91 68.09)"><tspan x="0" y="0">Annotation</tspan></text>
  <line class="st2" x1="65.57" y1="73.25" x2="154.15" y2="73.25"/>
  <rect class="st4" x="386.19" y="102.11" width="93.17" height="37.81"/>
  <text class="st10" transform="translate(394.76 117.37)"><tspan x="0" y="0">Reads QC</tspan><tspan x="-11.1" y="19.2">(Trimgalore!)</tspan></text>
  <g>
    <line class="st3" x1="336.33" y1="111.04" x2="377.84" y2="111.04"/>
    <polygon class="st11" points="384.9 111.04 374.95 115.11 377.31 111.04 374.95 106.98 384.9 111.04"/>
  </g>
  <g>
    <line class="st3" x1="384.9" y1="131.38" x2="343.39" y2="131.38"/>
    <polygon class="st11" points="336.33 131.38 346.28 127.31 343.92 131.38 346.28 135.44 336.33 131.38"/>
  </g>
</svg>