<?xml version="1.0" encoding="UTF-8"?>
<svg id="Layer_1" xmlns="http://www.w3.org/2000/svg" version="1.1" viewBox="0 0 612 600">
  <!-- Generator: Adobe Illustrator 29.3.1, SVG Export Plug-In . SVG Version: 2.1.0 Build 151)  -->
  <defs>
    <style>
      .st0, .st1, .st2, .st3 {
        fill: none;
      }

      .st1, .st4, .st2, .st3, .st5, .st6, .st7, .st8 {
        stroke-miterlimit: 10;
      }

      .st1, .st4, .st2, .st3, .st7, .st8 {
        stroke: #231f20;
      }

      .st9 {
        font-size: 12px;
      }

      .st9, .st10, .st11, .st12 {
        fill: #231f20;
      }

      .st9, .st11, .st12 {
        font-family: Arial-BoldMT, Arial;
        font-weight: 700;
      }

      .st11 {
        font-size: 16px;
      }

      .st4 {
        fill: #e6e7e8;
      }

      .st12 {
        font-size: 14.2px;
      }

      .st2 {
        stroke-width: .78px;
      }

      .st3, .st6 {
        stroke-width: 2px;
      }

      .st5 {
        fill: #d4ece8;
        stroke: #d1d3d4;
        stroke-width: 6px;
      }

      .st6 {
        fill: #92cb7a;
        stroke: #009444;
      }

      .st7 {
        fill: #c9e7db;
      }

      .st8 {
        fill: #f8f0c1;
      }
    </style>
  </defs>
  <rect class="st8" x="275.91" y="147.97" width="67.28" height="28.64" rx="2.3" ry="2.3"/>
  <text class="st11" transform="translate(290.36 166.32)"><tspan x="0" y="0">fastq</tspan></text>
  <rect class="st7" x="265.42" y="197.37" width="88.25" height="38.12"/>
  <text class="st11" transform="translate(269.8 211.63)"><tspan x="0" y="0">Alignment</tspan><tspan x="12" y="19.2">(STAR)</tspan></text>
  <rect class="st8" x="235.36" y="319.42" width="148.36" height="48.35" rx="2.3" ry="2.3"/>
  <text class="st11" transform="translate(258.8 339.92)"><tspan x="0" y="0">Subtelomeric</tspan><tspan x="-.87" y="19.2">TERRA count</tspan></text>
  <rect class="st8" x="244.2" y="479.99" width="130.54" height="48.35" rx="2.3" ry="2.3"/>
  <text class="st11" transform="translate(266.28 500.4)"><tspan x="0" y="0">Normalized</tspan><tspan x="16.9" y="19.2">counts</tspan></text>
  <rect class="st7" x="259.38" y="256.26" width="100.33" height="23.48"/>
  <text class="st11" transform="translate(260.36 273.12)"><tspan x="0" y="0">HTseq-count</tspan></text>
  <text class="st11" transform="translate(73.36 407.85)"><tspan x="0" y="0">Filter out </tspan><tspan x="0" y="19.2">tissue-specific </tspan><tspan x="0" y="38.4">gene expression</tspan></text>
  <rect class="st8" x="244.21" y="389.69" width="130.54" height="28.64" rx="2.3" ry="2.3"/>
  <text class="st11" transform="translate(252.15 407.85)"><tspan x="0" y="0">Merged counts</tspan></text>
  <rect class="st7" x="283.57" y="439.05" width="51.8" height="21.6"/>
  <text class="st11" transform="translate(287.11 455.31)"><tspan x="0" y="0">YARN</tspan></text>
  <text class="st11" transform="translate(369.6 444.87)"><tspan x="0" y="0">Counts are normalized </tspan><tspan x="19.59" y="19.2">by qsmooth method.</tspan></text>
  <g>
    <line class="st2" x1="147.77" y1="296.5" x2="147.77" y2="317.11"/>
    <polygon class="st10" points="147.77 319.86 146.18 315.98 147.77 316.9 149.35 315.98 147.77 319.86"/>
  </g>
  <path class="st0" d="M170.43,297.49"/>
  <g>
    <line class="st2" x1="309.47" y1="418.94" x2="309.47" y2="436.16"/>
    <polygon class="st10" points="309.47 438.91 307.89 435.04 309.47 435.96 311.06 435.04 309.47 438.91"/>
  </g>
  <g>
    <line class="st2" x1="309.47" y1="460.65" x2="309.47" y2="477.24"/>
    <polygon class="st10" points="309.47 479.99 307.89 476.12 309.47 477.04 311.06 476.12 309.47 479.99"/>
  </g>
  <rect class="st8" x="380.77" y="206.27" width="164.69" height="48.34" rx="2.3" ry="2.3"/>
  <text class="st11" transform="translate(433.59 225.18)"><tspan x="0" y="0">TERRA </tspan><tspan x="-50.23" y="19.2">transcription regions</tspan></text>
  <rect class="st8" x="124.52" y="221.18" width="105.13" height="28.64" rx="2.3" ry="2.3"/>
  <text class="st11" transform="translate(131.75 240.56)"><tspan x="0" y="0">CHM13 GTF</tspan></text>
  <g>
    <line class="st2" x1="471.28" y1="297.79" x2="471.28" y2="316.67"/>
    <polygon class="st10" points="471.28 319.42 469.7 315.54 471.28 316.46 472.86 315.54 471.28 319.42"/>
  </g>
  <path class="st0" d="M308.97,297.79"/>
  <g>
    <line class="st2" x1="309.54" y1="279.74" x2="309.54" y2="316.67"/>
    <polygon class="st10" points="309.54 319.42 307.96 315.54 309.54 316.46 311.13 315.54 309.54 319.42"/>
  </g>
  <line class="st2" x1="146.92" y1="297.49" x2="308.97" y2="297.49"/>
  <line class="st2" x1="309.29" y1="297.49" x2="472.25" y2="297.49"/>
  <path class="st2" d="M361.7,289.42"/>
  <line class="st2" x1="177.09" y1="268.45" x2="177.09" y2="250.1"/>
  <line class="st2" x1="463.12" y1="269.07" x2="463.12" y2="254.62"/>
  <g>
    <line class="st2" x1="176.14" y1="267.7" x2="256.63" y2="268.27"/>
    <polygon class="st10" points="259.38 268.29 255.49 269.85 256.42 268.27 255.51 266.68 259.38 268.29"/>
  </g>
  <g>
    <line class="st2" x1="464.07" y1="268.37" x2="362.46" y2="267.64"/>
    <polygon class="st10" points="359.71 267.62 363.6 266.07 362.66 267.65 363.57 269.23 359.71 267.62"/>
  </g>
  <g>
    <line class="st2" x1="309.54" y1="367.76" x2="309.54" y2="386.94"/>
    <polygon class="st10" points="309.54 389.69 307.96 385.82 309.54 386.74 311.13 385.82 309.54 389.69"/>
  </g>
  <rect class="st8" x="73.59" y="319.42" width="148.36" height="48.35" rx="2.3" ry="2.3"/>
  <text class="st11" transform="translate(99.31 349.02)"><tspan x="0" y="0">Gene counts</tspan></text>
  <rect class="st8" x="397.1" y="319.42" width="148.36" height="48.35" rx="2.3" ry="2.3"/>
  <text class="st11" transform="translate(431.13 338.43)"><tspan x="0" y="0">Telomeric </tspan><tspan x="-12.44" y="19.2">repeat counts</tspan></text>
  <g>
    <line class="st2" x1="309.54" y1="235.5" x2="309.54" y2="253.58"/>
    <polygon class="st10" points="309.54 256.32 307.96 252.45 309.54 253.37 311.13 252.45 309.54 256.32"/>
  </g>
  <g>
    <line class="st2" x1="309.54" y1="176.61" x2="309.54" y2="194.69"/>
    <polygon class="st10" points="309.54 197.44 307.96 193.56 309.54 194.48 311.13 193.56 309.54 197.44"/>
  </g>
  <line class="st2" x1="147.77" y1="404.67" x2="147.77" y2="367.76"/>
  <line class="st2" x1="471.28" y1="404.67" x2="471.28" y2="367.76"/>
  <g>
    <line class="st2" x1="147.36" y1="403.67" x2="241.46" y2="404.34"/>
    <polygon class="st10" points="244.21 404.36 240.32 405.91 241.25 404.34 240.34 402.75 244.21 404.36"/>
  </g>
  <g>
    <line class="st2" x1="472.28" y1="404.36" x2="377.49" y2="403.68"/>
    <polygon class="st10" points="374.74 403.66 378.63 402.11 377.7 403.69 378.61 405.27 374.74 403.66"/>
  </g>
  <text class="st11" transform="translate(73.36 184.58)"><tspan x="0" y="0">Reads were </tspan><tspan x="0" y="19.2">mapped to CHM13</tspan></text>
  <path class="st5" d="M241.04,99.76s-2.08-6.22,3.65-9.26,8.77,1.82,8.77,1.82c0,0,4.62-10.51,18.07-9.43,13.82,1.1,15.61,16.37,15.17,16.47.86,0,12.08,4.74,6.6,15.71-3.12,6.25-11.34,5.79-27.95,5.38-16.69-.41-27.21.75-29.68-6.77-2.52-7.65,2.6-12.57,5.38-13.91Z"/>
  <polygon class="st6" points="248.89 132.87 239.96 119.55 244.31 119.55 244.31 104.09 248.89 104.09 253.47 104.09 253.47 119.55 257.82 119.55 248.89 132.87"/>
  <text class="st11" transform="translate(295.35 102.77)"><tspan x="0" y="0">Online </tspan><tspan x="-7.57" y="19.2">database</tspan></text>
  <rect class="st4" x="68.94" y="94.47" width="102.43" height="52.77" rx="15.27" ry="15.27"/>
  <rect class="st7" x="82.38" y="119.85" width="35.73" height="18.13"/>
  <text class="st9" transform="translate(87.44 133.24)"><tspan x="0" y="0">Tool</tspan></text>
  <rect class="st8" x="121.12" y="119.85" width="35.65" height="18.13"/>
  <text class="st9" transform="translate(129.33 133.2)"><tspan x="0" y="0">File</tspan></text>
  <text class="st12" transform="translate(82.63 109.17)"><tspan x="0" y="0">Annotation</tspan></text>
  <line class="st1" x1="75.28" y1="114.33" x2="163.86" y2="114.33"/>
  <rect class="st7" x="395.9" y="143.19" width="93.17" height="37.81"/>
  <text class="st11" transform="translate(404.48 158.44)"><tspan x="0" y="0">Reads QC</tspan><tspan x="-11.1" y="19.2">(Trimgalore!)</tspan></text>
  <g>
    <line class="st3" x1="346.05" y1="152.12" x2="387.55" y2="152.12"/>
    <polygon class="st10" points="394.61 152.12 384.66 156.19 387.02 152.12 384.66 148.06 394.61 152.12"/>
  </g>
  <g>
    <line class="st3" x1="394.61" y1="172.46" x2="353.11" y2="172.46"/>
    <polygon class="st10" points="346.05 172.46 356 168.39 353.64 172.46 356 176.52 346.05 172.46"/>
  </g>
  <line class="st0" x1="519.2" y1="546.67" x2="519.2" y2="45.72"/>
</svg>